name Walk5.mot
datacolumns 19
datarows 10
range 1.51500000 1.56000000
endheader

                time	   L_ground_force_vx	   L_ground_force_vy	   L_ground_force_vz	   L_ground_force_px	   L_ground_force_py	   L_ground_force_pz	   R_ground_force_vx	   R_ground_force_vy	   R_ground_force_vz	   R_ground_force_px	   R_ground_force_py	   R_ground_force_pz	   L_ground_torque_x	   L_ground_torque_y	   L_ground_torque_z	   R_ground_torque_x	   R_ground_torque_y	   R_ground_torque_z	
          1.51500000	         22.83995389	        630.95603441	         35.32839180	         -0.31608000	          0.00000000	         -0.06429051	         -0.03274490	          0.24039126	         -0.00387321	          0.00016079	          0.00000000	          0.00006172	          0.00000000	         -0.85518294	          0.00000000	          0.00000000	         -0.00006272	          0.00000000	
          1.52000000	         23.48877813	        634.87597119	         35.79443180	         -0.31295156	          0.00000000	         -0.06434423	         -0.04519039	          0.31590959	         -0.00408402	          0.00019167	          0.00000000	          0.00007293	          0.00000000	         -0.91201430	          0.00000000	          0.00000000	         -0.00011940	          0.00000000	
          1.52500000	         24.39313012	        639.47307842	         36.30303182	         -0.30989251	          0.00000000	         -0.06436878	         -0.05902438	          0.39471083	         -0.00390907	          0.00021617	          0.00000000	          0.00008141	          0.00000000	         -0.96661716	          0.00000000	          0.00000000	         -0.00019306	          0.00000000	
          1.53000000	         25.59164250	        644.85991579	         36.86488077	         -0.30692871	          0.00000000	         -0.06436155	         -0.07331748	          0.46891295	         -0.00315417	          0.00022772	          0.00000000	          0.00008459	          0.00000000	         -1.01627751	          0.00000000	          0.00000000	         -0.00028412	          0.00000000	
          1.53500000	         27.11861048	        651.12512129	         37.48043373	         -0.30408523	          0.00000000	         -0.06432010	         -0.08656373	          0.52679210	         -0.00158799	          0.00021765	          0.00000000	          0.00007913	          0.00000000	         -1.05873876	          0.00000000	          0.00000000	         -0.00039107	          0.00000000	
          1.54000000	         29.00516399	        658.32196425	         38.13992727	         -0.30138508	          0.00000000	         -0.06424249	         -0.09654394	          0.55207942	          0.00105013	          0.00017510	          0.00000000	          0.00006085	          0.00000000	         -1.09231836	          0.00000000	          0.00000000	         -0.00050961	          0.00000000	
          1.54500000	         31.27819908	        666.45824680	         38.82450124	         -0.29884839	          0.00000000	         -0.06412711	         -0.10020029	          0.52342504	          0.00503444	          0.00008716	          0.00000000	          0.00002484	          0.00000000	         -1.11608467	          0.00000000	          0.00000000	         -0.00063162	          0.00000000	
          1.55000000	         33.95686846	        675.49530675	         39.50687746	         -0.29649091	          0.00000000	         -0.06397333	         -0.09354441	          0.41418899	          0.01062660	         -0.00006072	          0.00000000	         -0.00003438	          0.00000000	         -1.13011972	          0.00000000	          0.00000000	         -0.00074399	          0.00000000	
          1.55500000	         37.04871282	        685.35013640	         40.15023648	         -0.29432288	          0.00000000	         -0.06378097	         -0.07162873	          0.19276737	          0.01803635	         -0.00028385	          0.00000000	         -0.00012248	          0.00000000	         -1.13608297	          0.00000000	          0.00000000	         -0.00082745	          0.00000000	
          1.56000000	         40.54776965	        695.89582691	         40.70503290	         -0.29234756	          0.00000000	         -0.06354984	         -0.02862002	         -0.17628663	          0.02736658	         -0.00059677	          0.00000000	         -0.00024476	          0.00000000	         -1.13795133	          0.00000000	          0.00000000	         -0.00085555	          0.00000000	
